<svg width="512" height="512" viewBox="0 0 512 512" xmlns="http://www.w3.org/2000/svg">
  <defs>
    <linearGradient id="bg" x1="0" y1="0" x2="0" y2="1">
      <stop offset="0" stop-color="#2c2114" />
      <stop offset="1" stop-color="#15100a" />
    </linearGradient>
    <linearGradient id="gold" x1="0" y1="0" x2="0" y2="1">
      <stop offset="0" stop-color="#ecd083" />
      <stop offset="0.5" stop-color="#c69a3e" />
      <stop offset="1" stop-color="#9c7424" />
    </linearGradient>
  </defs>

  <!-- Medallón -->
  <rect x="16" y="16" width="480" height="480" rx="116" fill="url(#bg)" />
  <rect x="34" y="34" width="444" height="444" rx="100" fill="none" stroke="url(#gold)" stroke-width="5" opacity="0.65" />

  <!-- Estrella central de cuatro puntas -->
  <path d="M256 196 C263 238 274 249 316 256 C274 263 263 274 256 316 C249 274 238 263 196 256 C238 249 249 238 256 196 Z" fill="url(#gold)" />

  <!-- Corona de laurel: rama derecha + espejo -->
  <g>
    <g fill="none" stroke="url(#gold)" stroke-width="8" stroke-linecap="round">
      <path d="M256 426 C306 410 352 372 374 318 C394 268 390 208 358 150" />
    </g>
    <g fill="url(#gold)">
      <path d="M0 0 C8 -5 10 -17 0 -28 C-10 -17 -8 -5 0 0 Z" transform="translate(300 404) rotate(62)" />
      <path d="M0 0 C8 -5 10 -17 0 -28 C-10 -17 -8 -5 0 0 Z" transform="translate(334 376) rotate(48)" />
      <path d="M0 0 C8 -5 10 -17 0 -28 C-10 -17 -8 -5 0 0 Z" transform="translate(360 338) rotate(33)" />
      <path d="M0 0 C8 -5 10 -17 0 -28 C-10 -17 -8 -5 0 0 Z" transform="translate(378 292) rotate(18)" />
      <path d="M0 0 C8 -5 10 -17 0 -28 C-10 -17 -8 -5 0 0 Z" transform="translate(384 242) rotate(4)" />
      <path d="M0 0 C8 -5 10 -17 0 -28 C-10 -17 -8 -5 0 0 Z" transform="translate(378 192) rotate(-12)" />
      <path d="M0 0 C8 -5 10 -17 0 -28 C-10 -17 -8 -5 0 0 Z" transform="translate(360 150) rotate(-28)" />
    </g>
  </g>
  <g transform="translate(512 0) scale(-1 1)">
    <g fill="none" stroke="url(#gold)" stroke-width="8" stroke-linecap="round">
      <path d="M256 426 C306 410 352 372 374 318 C394 268 390 208 358 150" />
    </g>
    <g fill="url(#gold)">
      <path d="M0 0 C8 -5 10 -17 0 -28 C-10 -17 -8 -5 0 0 Z" transform="translate(300 404) rotate(62)" />
      <path d="M0 0 C8 -5 10 -17 0 -28 C-10 -17 -8 -5 0 0 Z" transform="translate(334 376) rotate(48)" />
      <path d="M0 0 C8 -5 10 -17 0 -28 C-10 -17 -8 -5 0 0 Z" transform="translate(360 338) rotate(33)" />
      <path d="M0 0 C8 -5 10 -17 0 -28 C-10 -17 -8 -5 0 0 Z" transform="translate(378 292) rotate(18)" />
      <path d="M0 0 C8 -5 10 -17 0 -28 C-10 -17 -8 -5 0 0 Z" transform="translate(384 242) rotate(4)" />
      <path d="M0 0 C8 -5 10 -17 0 -28 C-10 -17 -8 -5 0 0 Z" transform="translate(378 192) rotate(-12)" />
      <path d="M0 0 C8 -5 10 -17 0 -28 C-10 -17 -8 -5 0 0 Z" transform="translate(360 150) rotate(-28)" />
    </g>
  </g>
</svg>
